# 3ds Max Wavefront OBJ Exporter v0.99 - (c)2007 guruware
# File Created: 08.12.2024 15:25:12

#
# object Object002
#

v  0.0737 3.6297 0.7688
v  0.0436 3.6250 0.7664
v  0.0723 3.6145 0.7647
v  0.0671 3.6437 0.7723
v  0.0632 3.6021 0.7611
v  0.0541 3.6526 0.7742
v  0.0488 3.5958 0.7588
v  0.0384 3.6542 0.7740
v  0.0330 3.5973 0.7586
v  0.0240 3.6479 0.7718
v  0.0201 3.6063 0.7605
v  0.0149 3.6355 0.7681
v  0.0134 3.6202 0.7640
v  -0.1408 3.5820 0.7431
v  -0.1174 3.6004 0.7501
v  -0.1474 3.5960 0.7464
v  -0.1460 3.6112 0.7507
v  -0.1279 3.5730 0.7417
v  -0.1369 3.6235 0.7548
v  -0.1121 3.5712 0.7425
v  -0.1226 3.6296 0.7577
v  -0.0978 3.5774 0.7454
v  -0.1069 3.6279 0.7585
v  -0.0887 3.5897 0.7495
v  -0.0939 3.6189 0.7571
v  -0.0873 3.6049 0.7538
# 26 vertices

vn -0.0365 -0.2575 0.9656
vn -0.0365 -0.2576 0.9656
vn -0.0365 -0.2574 0.9656
vn -0.0364 -0.2575 0.9656
vn -0.0794 -0.2641 0.9612
vn -0.0794 -0.2640 0.9612
vn -0.0794 -0.2640 0.9613
vn -0.0795 -0.2640 0.9612
vn -0.0793 -0.2640 0.9612
vn -0.0793 -0.2641 0.9612
# 10 vertex normals

vt 0.6797 0.8697 0.0000
vt 0.5508 0.8674 0.0000
vt 0.6602 0.9341 0.0000
vt 0.6641 0.8047 0.0000
vt 0.6133 0.9806 0.0000
vt 0.6172 0.7565 0.0000
vt 0.5469 0.9968 0.0000
vt 0.5527 0.7380 0.0000
vt 0.4844 0.9784 0.0000
vt 0.4883 0.7542 0.0000
vt 0.4375 0.9302 0.0000
vt 0.4395 0.8007 0.0000
vt 0.4199 0.8651 0.0000
# 13 texture coords

o Object002
g Object002
f 1/1/1 2/2/1 3/3/2 
f 4/4/3 2/2/1 1/1/1 
f 3/3/2 2/2/1 5/5/4 
f 6/6/1 2/2/1 4/4/3 
f 5/5/4 2/2/1 7/7/1 
f 8/8/1 2/2/1 6/6/1 
f 7/7/1 2/2/1 9/9/1 
f 10/10/4 2/2/1 8/8/1 
f 9/9/1 2/2/1 11/11/1 
f 12/12/2 2/2/1 10/10/4 
f 11/11/1 2/2/1 13/13/2 
f 13/13/2 2/2/1 12/12/2 
f 14/3/5 15/2/6 16/1/5 
f 16/1/5 15/2/6 17/4/7 
f 18/5/8 15/2/6 14/3/5 
f 17/4/7 15/2/6 19/6/6 
f 20/7/6 15/2/6 18/5/8 
f 19/6/6 15/2/6 21/8/6 
f 22/9/9 15/2/6 20/7/6 
f 21/8/6 15/2/6 23/10/8 
f 24/11/6 15/2/6 22/9/9 
f 23/10/8 15/2/6 25/12/5 
f 25/12/5 15/2/6 26/13/10 
f 26/13/10 15/2/6 24/11/6 
# 24 faces

